<?xml version="1.0" encoding="UTF-8" standalone="no"?>
<!-- Created with Inkscape (http://www.inkscape.org/) -->

<svg
   xmlns:dc="http://purl.org/dc/elements/1.1/"
   xmlns:cc="http://creativecommons.org/ns#"
   xmlns:rdf="http://www.w3.org/1999/02/22-rdf-syntax-ns#"
   xmlns:svg="http://www.w3.org/2000/svg"
   xmlns="http://www.w3.org/2000/svg"
   xmlns:sodipodi="http://sodipodi.sourceforge.net/DTD/sodipodi-0.dtd"
   xmlns:inkscape="http://www.inkscape.org/namespaces/inkscape"
   width="210mm"
   height="297mm"
   viewBox="0 0 210 297"
   version="1.1"
   id="svg8"
   inkscape:version="0.91 r13725"
   sodipodi:docname="Jyve.inkscape.svg">
  <defs
     id="defs2" />
  <sodipodi:namedview
     id="base"
     pagecolor="#ffffff"
     bordercolor="#666666"
     borderopacity="1.0"
     inkscape:pageopacity="0.0"
     inkscape:pageshadow="2"
     inkscape:zoom="2"
     inkscape:cx="274.78917"
     inkscape:cy="917.65027"
     inkscape:document-units="mm"
     inkscape:current-layer="layer1"
     showgrid="false"
     inkscape:window-width="1440"
     inkscape:window-height="787"
     inkscape:window-x="480"
     inkscape:window-y="1081"
     inkscape:window-maximized="1" />
  <metadata
     id="metadata5">
    <rdf:RDF>
      <cc:Work
         rdf:about="">
        <dc:format>image/svg+xml</dc:format>
        <dc:type
           rdf:resource="http://purl.org/dc/dcmitype/StillImage" />
        <dc:title></dc:title>
      </cc:Work>
    </rdf:RDF>
  </metadata>
  <g
     inkscape:label="Layer 1"
     inkscape:groupmode="layer"
     id="layer1">
    <g
       id="g952"
       inkscape:export-filename="/Users/guscrawford/jyve/test/general-express-app/public/images/jyve-logo.png"
       inkscape:export-xdpi="129.12059"
       inkscape:export-ydpi="129.12059">
      <rect
         ry="5.0270834"
         y="14.424444"
         x="6.5481796"
         height="39.422913"
         width="90.489052"
         id="rect890"
         style="fill:#ff6600;fill-opacity:1;stroke:none;stroke-width:1.61360002;stroke-miterlimit:4;stroke-dasharray:none;stroke-opacity:1" />
      <g
         style="fill:#ffffff"
         id="g895">
        <path
           style="color:#000000;font-style:normal;font-variant:normal;font-weight:normal;font-stretch:normal;font-size:medium;line-height:normal;font-family:sans-serif;font-variant-ligatures:normal;font-variant-position:normal;font-variant-caps:normal;font-variant-numeric:normal;font-variant-alternates:normal;font-feature-settings:normal;text-indent:0;text-align:start;text-decoration:none;text-decoration-line:none;text-decoration-style:solid;text-decoration-color:#000000;letter-spacing:normal;word-spacing:normal;text-transform:none;writing-mode:lr-tb;direction:ltr;text-orientation:mixed;dominant-baseline:auto;baseline-shift:baseline;text-anchor:start;white-space:normal;shape-padding:0;clip-rule:nonzero;display:inline;overflow:visible;visibility:visible;opacity:1;isolation:auto;mix-blend-mode:normal;color-interpolation:sRGB;color-interpolation-filters:linearRGB;solid-color:#000000;solid-opacity:1;vector-effect:none;fill:#803300;fill-opacity:1;fill-rule:nonzero;stroke:none;stroke-width:6;stroke-linecap:butt;stroke-linejoin:miter;stroke-miterlimit:4;stroke-dasharray:none;stroke-dashoffset:0;stroke-opacity:1;color-rendering:auto;image-rendering:auto;shape-rendering:auto;text-rendering:auto;enable-background:accumulate"
           d="M 64.998047 77.517578 L 64.998047 80.521484 L 64.998047 97.009766 A 15.056007 15.056004 0 0 0 52.330078 111.86719 A 15.056007 15.056004 0 0 0 67.386719 126.92383 A 15.056007 15.056004 0 0 0 82.441406 111.86719 A 15.056007 15.056004 0 0 0 70.998047 97.269531 L 70.998047 83.519531 L 338.00195 83.519531 L 338.00195 174.52344 L 70.998047 174.52344 L 70.998047 142 A 30.385762 30.385751 0 0 0 97.771484 111.86719 L 89.558594 111.86719 A 22.173393 22.173387 0 0 1 67.386719 134.04102 A 22.173393 22.173387 0 0 1 45.212891 111.86719 L 37 111.86719 A 30.385762 30.385751 0 0 0 64.998047 142.13477 L 64.998047 180.51758 L 344.00391 180.51758 L 344.00391 77.517578 L 64.998047 77.517578 z "
           transform="scale(0.26458333)"
           id="rect878" />
        <text
           xml:space="preserve"
           style="font-style:normal;font-weight:normal;font-size:10.58333302px;line-height:1.25;font-family:sans-serif;letter-spacing:0px;word-spacing:0px;fill:#ffffff;fill-opacity:1;stroke:none;stroke-width:0.26458332"
           x="34.131248"
           y="39.295834"
           id="text857"><tspan
             sodipodi:role="line"
             id="tspan855"
             x="34.131248"
             y="39.295834"
             style="font-style:normal;font-variant:normal;font-weight:normal;font-stretch:normal;font-size:22.57777786px;font-family:Consolas;-inkscape-font-specification:Consolas;stroke-width:0.26458332;fill:#ffffff">jyve</tspan></text>
      </g>
    </g>
    <path
       inkscape:connector-curvature="0"
       id="path887"
       d="m -19.212455,37.637814 a 8.0395661,8.0395634 0 0 1 -8.039629,-8.03949 8.0395661,8.0395634 0 0 1 0,-1.39e-4 h 2.172835 a 5.8667102,5.8667086 0 0 0 0,1.39e-4 5.8667102,5.8667086 0 0 0 5.866794,5.866655 5.8667102,5.8667086 0 0 0 5.866655,-5.866655 5.8667102,5.8667086 0 0 0 0,-1.39e-4 h 2.172835 a 8.0395661,8.0395634 0 0 1 0,1.39e-4 8.0395661,8.0395634 0 0 1 -8.03949,8.03949 z m 0,-4.055959 a 3.9835686,3.9835678 0 0 1 -3.98367,-3.98367 3.9835686,3.9835678 0 0 1 3.98367,-3.983532 3.9835686,3.9835678 0 0 1 3.983531,3.983532 3.9835686,3.9835678 0 0 1 -3.983531,3.98367 z"
       style="fill:#552200;fill-opacity:1;stroke-width:0.0724285" />
    <rect
       ry="1.467638"
       y="-5.6838894"
       x="-63.301815"
       height="11.50937"
       width="12.172388"
       id="rect897"
       style="fill:#ff6600;fill-opacity:1;stroke:none;stroke-width:0.31976959;stroke-miterlimit:4;stroke-dasharray:none;stroke-opacity:1" />
    <rect
       style="fill:#2ca089;fill-opacity:1;stroke:none;stroke-width:0.31976959;stroke-miterlimit:4;stroke-dasharray:none;stroke-opacity:1"
       id="rect899"
       width="12.172388"
       height="11.50937"
       x="-63.301815"
       y="10.191111"
       ry="1.467638" />
    <rect
       ry="1.467638"
       y="26.066111"
       x="-63.301815"
       height="11.50937"
       width="12.172388"
       id="rect901"
       style="fill:#dbe3e2;fill-opacity:1;stroke:none;stroke-width:0.31976959;stroke-miterlimit:4;stroke-dasharray:none;stroke-opacity:1" />
    <g
       id="g959">
      <rect
         style="fill:#ff6600;fill-opacity:1;stroke:none;stroke-width:1.06505787;stroke-miterlimit:4;stroke-dasharray:none;stroke-opacity:1"
         id="rect903"
         width="39.423"
         height="39.423"
         x="6.5481796"
         y="56.757694"
         ry="5.0270944" />
      <g
         id="g942">
        <path
           sodipodi:nodetypes="cccccccccccccccccccccc"
           inkscape:connector-curvature="0"
           id="path905"
           d="m 17.1974,62.843194 v 0.794783 4.362525 c -1.930612,0.310141 -3.350696,1.975663 -3.351734,3.931027 -9.3e-5,2.200195 1.783541,3.983828 3.983737,3.983736 2.199993,-1.94e-4 3.983312,-1.783744 3.983219,-3.983736 -0.0022,-1.830068 -1.251117,-3.423179 -3.027722,-3.862298 v -3.63802 H 41.804682 V 88.509328 H 18.7849 v -8.60516 c 4.037833,-0.483452 7.078791,-3.905972 7.083805,-7.972639 h -2.172994 c 6.5e-5,3.239981 -2.626325,5.866603 -5.866308,5.866825 -3.240186,6.4e-5 -5.866891,-2.62664 -5.866826,-5.866825 H 9.7895832 C 9.7929249,76.12419 13.0177,79.610367 17.1974,79.939826 V 90.095277 H 43.392701 V 62.843194 Z"
           style="color:#000000;font-style:normal;font-variant:normal;font-weight:normal;font-stretch:normal;font-size:medium;line-height:normal;font-family:sans-serif;font-variant-ligatures:normal;font-variant-position:normal;font-variant-caps:normal;font-variant-numeric:normal;font-variant-alternates:normal;font-feature-settings:normal;text-indent:0;text-align:start;text-decoration:none;text-decoration-line:none;text-decoration-style:solid;text-decoration-color:#000000;letter-spacing:normal;word-spacing:normal;text-transform:none;writing-mode:lr-tb;direction:ltr;text-orientation:mixed;dominant-baseline:auto;baseline-shift:baseline;text-anchor:start;white-space:normal;shape-padding:0;clip-rule:nonzero;display:inline;overflow:visible;visibility:visible;opacity:1;isolation:auto;mix-blend-mode:normal;color-interpolation:sRGB;color-interpolation-filters:linearRGB;solid-color:#000000;solid-opacity:1;vector-effect:none;fill:#803300;fill-opacity:1;fill-rule:nonzero;stroke:none;stroke-width:1.58749998;stroke-linecap:butt;stroke-linejoin:miter;stroke-miterlimit:4;stroke-dasharray:none;stroke-dashoffset:0;stroke-opacity:1;color-rendering:auto;image-rendering:auto;shape-rendering:auto;text-rendering:auto;enable-background:accumulate" />
        <text
           id="text909"
           y="81.629166"
           x="26.722914"
           style="font-style:normal;font-weight:normal;font-size:10.58333302px;line-height:1.25;font-family:sans-serif;letter-spacing:0px;word-spacing:0px;fill:#ffffff;fill-opacity:1;stroke:none;stroke-width:0.26458332"
           xml:space="preserve"><tspan
             style="font-style:normal;font-variant:normal;font-weight:normal;font-stretch:normal;font-size:22.57777786px;font-family:Consolas;-inkscape-font-specification:Consolas;fill:#ffffff;stroke-width:0.26458332"
             y="81.629166"
             x="26.722914"
             id="tspan907"
             sodipodi:role="line">j</tspan></text>
      </g>
    </g>
    <g
       id="g963">
      <rect
         ry="5.0270944"
         y="99.091011"
         x="6.5481796"
         height="39.423"
         width="39.423"
         id="rect913"
         style="fill:#ff6600;fill-opacity:1;stroke:none;stroke-width:1.06505787;stroke-miterlimit:4;stroke-dasharray:none;stroke-opacity:1" />
      <path
         id="path915"
         transform="scale(0.26458333)"
         d="M 96.333984 374.51758 L 96.333984 421.25977 C 81.912966 423.57639 71.304631 436.01714 71.296875 450.62305 C 71.29618 467.05776 84.619968 480.37959 101.05469 480.37891 C 117.48789 480.37792 130.8093 467.05624 130.80859 450.62305 C 130.79234 436.95306 121.46205 425.05155 108.19141 421.77148 L 108.19141 374.59766 L 108.19141 374.51758 L 96.333984 374.51758 z M 41 450.62305 C 41.024945 481.94078 65.113038 507.98044 96.333984 510.44141 L 96.333984 523.51758 L 108.19141 523.51758 L 108.19141 510.17578 C 138.35264 506.56456 161.06802 480.99964 161.10547 450.62305 L 144.875 450.62305 C 144.87548 474.82461 125.25626 494.44365 101.05469 494.44531 C 76.851595 494.44577 57.231938 474.82612 57.232422 450.62305 L 41 450.62305 z "
         style="color:#000000;font-style:normal;font-variant:normal;font-weight:normal;font-stretch:normal;font-size:medium;line-height:normal;font-family:sans-serif;font-variant-ligatures:normal;font-variant-position:normal;font-variant-caps:normal;font-variant-numeric:normal;font-variant-alternates:normal;font-feature-settings:normal;text-indent:0;text-align:start;text-decoration:none;text-decoration-line:none;text-decoration-style:solid;text-decoration-color:#000000;letter-spacing:normal;word-spacing:normal;text-transform:none;writing-mode:lr-tb;direction:ltr;text-orientation:mixed;dominant-baseline:auto;baseline-shift:baseline;text-anchor:start;white-space:normal;shape-padding:0;clip-rule:nonzero;display:inline;overflow:visible;visibility:visible;opacity:1;isolation:auto;mix-blend-mode:normal;color-interpolation:sRGB;color-interpolation-filters:linearRGB;solid-color:#000000;solid-opacity:1;vector-effect:none;fill:#803300;fill-opacity:1;fill-rule:nonzero;stroke:none;stroke-width:11.85808659;stroke-linecap:butt;stroke-linejoin:miter;stroke-miterlimit:4;stroke-dasharray:none;stroke-dashoffset:0;stroke-opacity:1;color-rendering:auto;image-rendering:auto;shape-rendering:auto;text-rendering:auto;enable-background:accumulate" />
    </g>
  </g>
</svg>
